<svg width="20" height="20" viewBox="0 0 20 20" fill="none" xmlns="http://www.w3.org/2000/svg">
<g clip-path="url(#clip0_365_275)">
<rect width="20" height="20" rx="5" fill="url(#paint0_linear_365_275)"/>
<path d="M9.99316 16.5996C9.8291 16.5996 9.66504 16.5928 9.49414 16.5791L9.125 17.2832C9.0293 17.4609 8.87891 17.543 8.68066 17.5088C8.49609 17.4678 8.37305 17.3447 8.3457 17.1465L8.23633 16.3604C7.91504 16.2715 7.60059 16.1621 7.2998 16.0186L6.70508 16.5518C6.56836 16.6885 6.39062 16.709 6.21289 16.6064C6.04883 16.5107 5.98047 16.3467 6.02148 16.1553L6.18555 15.3828C5.91895 15.1846 5.65918 14.9727 5.41992 14.7334L4.68848 15.041C4.51074 15.1094 4.33984 15.0752 4.20312 14.918C4.08691 14.7744 4.06641 14.5967 4.17578 14.4258L4.59961 13.7627C4.4082 13.4824 4.24414 13.1953 4.10059 12.8945L3.30762 12.9219C3.10938 12.9287 2.96582 12.8398 2.89062 12.6484C2.83594 12.4639 2.87695 12.293 3.03418 12.1768L3.66309 11.6914C3.58105 11.3701 3.51953 11.042 3.49219 10.7002L2.7334 10.4609C2.54199 10.3994 2.43945 10.2627 2.43945 10.0645C2.43945 9.86621 2.54199 9.72266 2.7334 9.66797L3.49219 9.42871C3.51953 9.08691 3.58105 8.75879 3.66309 8.4375L3.03418 7.95215C2.87695 7.83594 2.82227 7.66504 2.89746 7.48047C2.96582 7.2959 3.10938 7.19336 3.31445 7.20703L4.10059 7.23438C4.24414 6.94043 4.4082 6.64648 4.59961 6.37305L4.17578 5.70312C4.06641 5.53223 4.07324 5.35449 4.20312 5.21094C4.33301 5.06055 4.51074 5.0127 4.68848 5.08789L5.41992 5.38867C5.65918 5.15625 5.91211 4.94434 6.18555 4.75293L6.02148 3.97363C5.98047 3.78223 6.04199 3.61816 6.21289 3.52246C6.39062 3.42676 6.56836 3.44043 6.71191 3.57715L7.29297 4.11035C7.59375 3.97363 7.9082 3.85742 8.22949 3.76172L8.3457 2.97559C8.37305 2.78418 8.48926 2.6543 8.6875 2.62012C8.87207 2.59277 9.0293 2.66797 9.125 2.8457L9.49414 3.54297C9.66504 3.53613 9.8291 3.5293 9.99316 3.5293C10.1641 3.5293 10.3281 3.53613 10.4922 3.54297L10.8682 2.83887C10.957 2.66797 11.1143 2.58594 11.3125 2.62012C11.4971 2.66113 11.6201 2.78418 11.6406 2.97559L11.75 3.76172C12.0781 3.85742 12.3926 3.9668 12.6865 4.10352L13.2812 3.57715C13.4248 3.44727 13.6025 3.41992 13.7803 3.52246C13.9443 3.61816 14.0127 3.77539 13.9717 3.97363L13.8008 4.74609C14.0674 4.9375 14.3271 5.14941 14.5664 5.38867L15.3047 5.08789C15.4824 5.01953 15.6533 5.05371 15.79 5.2041C15.9062 5.35449 15.9199 5.53223 15.8105 5.70312L15.3936 6.36621C15.5781 6.63965 15.7422 6.93359 15.8926 7.22754L16.6787 7.20703C16.877 7.2002 17.0273 7.28906 17.0957 7.48047C17.1572 7.66504 17.1162 7.83594 16.9521 7.95215L16.3232 8.4375C16.4121 8.75879 16.4668 9.08691 16.501 9.42871L17.2529 9.66797C17.4443 9.72266 17.5537 9.86621 17.5537 10.0645C17.5537 10.2627 17.4443 10.3994 17.2529 10.4609L16.501 10.7002C16.4668 11.042 16.4121 11.3701 16.3232 11.6914L16.959 12.1768C17.1162 12.293 17.1641 12.4639 17.0957 12.6416C17.0273 12.833 16.877 12.9287 16.6787 12.9219L15.8926 12.8945C15.7422 13.1885 15.5781 13.4756 15.3936 13.7559L15.8174 14.4258C15.9268 14.5967 15.9131 14.7676 15.7832 14.918C15.6533 15.0684 15.4824 15.1094 15.2979 15.041L14.5664 14.7402C14.3271 14.9658 14.0742 15.1846 13.8008 15.376L13.9717 16.1553C14.0127 16.3467 13.9443 16.5107 13.7734 16.6064C13.6025 16.6953 13.4248 16.6885 13.2812 16.5518L12.6934 16.0186C12.3926 16.1553 12.085 16.2715 11.7568 16.3604L11.6406 17.1533C11.6201 17.3447 11.5039 17.4746 11.3057 17.5088C11.1143 17.5293 10.957 17.4609 10.8682 17.2832L10.4922 16.5791C10.3281 16.5928 10.1641 16.5996 9.99316 16.5996ZM10 8.27344C10.8203 8.27344 11.5176 8.82715 11.7227 9.58594H15.373C15.1338 6.82422 12.8164 4.66406 9.99316 4.66406C9.16602 4.66406 8.37988 4.84863 7.67578 5.18359L9.51465 8.33496C9.66504 8.29395 9.8291 8.27344 10 8.27344ZM4.59277 10.0645C4.59277 11.8555 5.46094 13.4414 6.80078 14.4258L8.70801 11.3086C8.40039 10.9873 8.20898 10.543 8.20898 10.0645C8.20898 9.58594 8.39355 9.15527 8.69434 8.83398L6.8418 5.67578C5.48145 6.65332 4.59277 8.25293 4.59277 10.0645ZM10 10.8301C10.4238 10.8301 10.7656 10.4883 10.7656 10.0645C10.7656 9.64062 10.4238 9.29883 10 9.29883C9.57617 9.29883 9.23438 9.64062 9.23438 10.0645C9.23438 10.4883 9.57617 10.8301 10 10.8301ZM9.99316 15.4648C12.8232 15.4648 15.1406 13.2979 15.3799 10.5293H11.7295C11.5244 11.2949 10.8271 11.8555 10 11.8555C9.83594 11.8555 9.67871 11.835 9.52832 11.7939L7.62793 14.918C8.3457 15.2666 9.14551 15.4648 9.99316 15.4648Z" fill="white"/>
</g>
<defs>
<linearGradient id="paint0_linear_365_275" x1="10" y1="0" x2="10" y2="20" gradientUnits="userSpaceOnUse">
<stop stop-color="#CFCFCF"/>
<stop offset="1" stop-color="#858993"/>
</linearGradient>
<clipPath id="clip0_365_275">
<rect width="20" height="20" rx="5" fill="white"/>
</clipPath>
</defs>
</svg>
