<svg width="20" height="20" viewBox="0 0 20 20" fill="none" xmlns="http://www.w3.org/2000/svg">
<rect width="20" height="20" rx="5" fill="url(#paint0_linear_702_2142)"/>
<g clip-path="url(#clip0_702_2142)">
<path d="M4.37128 14.916H15.6287C16.8683 14.916 17.5 14.2962 17.5 13.0685V7.34148C17.5 6.11979 16.8683 5.5 15.6287 5.5H4.37128C3.11979 5.5 2.5 6.11383 2.5 7.34148V13.0685C2.5 14.2962 3.11979 14.916 4.37128 14.916ZM4.75864 8.77771C4.59177 8.77771 4.49046 8.67044 4.49046 8.50358V7.93743C4.49046 7.77056 4.59177 7.66329 4.75864 7.66329H5.32479C5.49761 7.66329 5.60489 7.77056 5.60489 7.93743V8.50358C5.60489 8.67044 5.49761 8.77771 5.32479 8.77771H4.75864ZM6.73719 8.77771C6.56436 8.77771 6.46305 8.67044 6.46305 8.50358V7.93743C6.46305 7.77056 6.56436 7.66329 6.73719 7.66329H7.30333C7.4702 7.66329 7.57747 7.77056 7.57747 7.93743V8.50358C7.57747 8.67044 7.4702 8.77771 7.30333 8.77771H6.73719ZM8.71575 8.77771C8.54885 8.77771 8.4416 8.67044 8.4416 8.50358V7.93743C8.4416 7.77056 8.54885 7.66329 8.71575 7.66329H9.27591C9.44877 7.66329 9.55602 7.77056 9.55602 7.93743V8.50358C9.55602 8.67044 9.44877 8.77771 9.27591 8.77771H8.71575ZM10.6943 8.77771C10.5274 8.77771 10.4201 8.67044 10.4201 8.50358V7.93743C10.4201 7.77056 10.5274 7.66329 10.6943 7.66329H11.2604C11.4273 7.66329 11.5346 7.77056 11.5346 7.93743V8.50358C11.5346 8.67044 11.4273 8.77771 11.2604 8.77771H10.6943ZM12.6728 8.77771C12.5 8.77771 12.3927 8.67044 12.3927 8.50358V7.93743C12.3927 7.77056 12.5 7.66329 12.6728 7.66329H13.239C13.4058 7.66329 13.5071 7.77056 13.5071 7.93743V8.50358C13.5071 8.67044 13.4058 8.77771 13.239 8.77771H12.6728ZM14.6514 8.77771C14.4786 8.77771 14.3713 8.67044 14.3713 8.50358V7.93743C14.3713 7.77056 14.4786 7.66329 14.6514 7.66329H15.2116C15.3844 7.66329 15.4857 7.77056 15.4857 7.93743V8.50358C15.4857 8.67044 15.3844 8.77771 15.2116 8.77771H14.6514ZM4.75864 10.7562C4.59177 10.7562 4.49046 10.649 4.49046 10.4821V9.91597C4.49046 9.74911 4.59177 9.64183 4.75864 9.64183H5.32479C5.49761 9.64183 5.60489 9.74911 5.60489 9.91597V10.4821C5.60489 10.649 5.49761 10.7562 5.32479 10.7562H4.75864ZM6.73719 10.7562C6.56436 10.7562 6.46305 10.649 6.46305 10.4821V9.91597C6.46305 9.74911 6.56436 9.64183 6.73719 9.64183H7.30333C7.4702 9.64183 7.57747 9.74911 7.57747 9.91597V10.4821C7.57747 10.649 7.4702 10.7562 7.30333 10.7562H6.73719ZM8.71575 10.7562C8.54885 10.7562 8.4416 10.649 8.4416 10.4821V9.91597C8.4416 9.74911 8.54885 9.64183 8.71575 9.64183H9.27591C9.44877 9.64183 9.55602 9.74911 9.55602 9.91597V10.4821C9.55602 10.649 9.44877 10.7562 9.27591 10.7562H8.71575ZM10.6943 10.7562C10.5274 10.7562 10.4201 10.649 10.4201 10.4821V9.91597C10.4201 9.74911 10.5274 9.64183 10.6943 9.64183H11.2604C11.4273 9.64183 11.5346 9.74911 11.5346 9.91597V10.4821C11.5346 10.649 11.4273 10.7562 11.2604 10.7562H10.6943ZM12.6728 10.7562C12.5 10.7562 12.3927 10.649 12.3927 10.4821V9.91597C12.3927 9.74911 12.5 9.64183 12.6728 9.64183H13.239C13.4058 9.64183 13.5071 9.74911 13.5071 9.91597V10.4821C13.5071 10.649 13.4058 10.7562 13.239 10.7562H12.6728ZM14.6514 10.7562C14.4786 10.7562 14.3713 10.649 14.3713 10.4821V9.91597C14.3713 9.74911 14.4786 9.64183 14.6514 9.64183H15.2116C15.3844 9.64183 15.4857 9.74911 15.4857 9.91597V10.4821C15.4857 10.649 15.3844 10.7562 15.2116 10.7562H14.6514ZM4.75864 12.7348C4.59177 12.7348 4.49046 12.6275 4.49046 12.4607V11.8945C4.49046 11.7277 4.59177 11.6204 4.75864 11.6204H5.32479C5.49761 11.6204 5.60489 11.7277 5.60489 11.8945V12.4607C5.60489 12.6275 5.49761 12.7348 5.32479 12.7348H4.75864ZM6.80274 12.7348C6.5882 12.7348 6.46305 12.6097 6.46305 12.3951V11.9541C6.46305 11.7455 6.5882 11.6204 6.80274 11.6204H13.1734C13.382 11.6204 13.5071 11.7455 13.5071 11.9541V12.3951C13.5071 12.6097 13.382 12.7348 13.1734 12.7348H6.80274ZM14.6514 12.7348C14.4786 12.7348 14.3713 12.6275 14.3713 12.4607V11.8945C14.3713 11.7277 14.4786 11.6204 14.6514 11.6204H15.2116C15.3844 11.6204 15.4857 11.7277 15.4857 11.8945V12.4607C15.4857 12.6275 15.3844 12.7348 15.2116 12.7348H14.6514Z" fill="white"/>
</g>
<defs>
<linearGradient id="paint0_linear_702_2142" x1="10" y1="0" x2="10" y2="20" gradientUnits="userSpaceOnUse">
<stop stop-color="#CFCFCF"/>
<stop offset="1" stop-color="#858993"/>
</linearGradient>
<clipPath id="clip0_702_2142">
<rect width="15" height="9.42191" fill="white" transform="translate(2.5 5.5)"/>
</clipPath>
</defs>
</svg>
