<svg width="558" height="540" viewBox="0 0 558 540" fill="none" xmlns="http://www.w3.org/2000/svg">
<path d="M556.513 115.72C557.275 115.324 558.148 116.009 557.946 116.843L489.258 399.944C488.713 402.19 487.222 404.091 485.172 405.156L226.674 539.482C225.912 539.877 225.039 539.193 225.241 538.358L293.93 255.257C294.475 253.011 295.965 251.111 298.015 250.045L556.513 115.72Z" fill="white"/>
<path d="M234.405 1.66117C236.258 0.279288 238.618 -0.233758 240.877 0.253941L525.632 61.7266C526.471 61.9077 526.707 62.9915 526.019 63.5049L292.516 237.692C290.664 239.074 288.304 239.587 286.045 239.1L1.28984 177.627C0.450932 177.446 0.214625 176.362 0.902148 175.849L234.405 1.66117Z" fill="white"/>
</svg>
