<svg width="20" height="20" viewBox="0 0 20 20" fill="none" xmlns="http://www.w3.org/2000/svg">
<path d="M0 8C0 5.19974 0 3.79961 0.544967 2.73005C1.02433 1.78924 1.78924 1.02433 2.73005 0.544967C3.79961 0 5.19974 0 8 0H12C14.8003 0 16.2004 0 17.27 0.544967C18.2108 1.02433 18.9757 1.78924 19.455 2.73005C20 3.79961 20 5.19974 20 8V12C20 14.8003 20 16.2004 19.455 17.27C18.9757 18.2108 18.2108 18.9757 17.27 19.455C16.2004 20 14.8003 20 12 20H8C5.19974 20 3.79961 20 2.73005 19.455C1.78924 18.9757 1.02433 18.2108 0.544967 17.27C0 16.2004 0 14.8003 0 12V8Z" fill="url(#paint0_linear_361_511)"/>
<path fill-rule="evenodd" clip-rule="evenodd" d="M10 3.5C13.5899 3.5 16.5 6.41015 16.5 10C16.5 13.5899 13.5899 16.5 10 16.5C6.41015 16.5 3.5 13.5899 3.5 10C3.5 6.41015 6.41015 3.5 10 3.5ZM10 7.5C11.3807 7.5 12.5 8.61929 12.5 10C12.5 11.3807 11.3807 12.5 10 12.5V15.5C13.0376 15.5 15.5 13.0376 15.5 10C15.5 6.96243 13.0376 4.5 10 4.5V7.5ZM10 7.5C8.61929 7.5 7.5 8.61929 7.5 10C7.5 11.3807 8.61929 12.5 10 12.5V7.5Z" fill="white"/>
<defs>
<linearGradient id="paint0_linear_361_511" x1="10" y1="0" x2="10" y2="20" gradientUnits="userSpaceOnUse">
<stop stop-color="#2A2A2A"/>
<stop offset="1"/>
</linearGradient>
</defs>
</svg>
