<svg width="18" height="18" viewBox="0 0 18 18" fill="none" xmlns="http://www.w3.org/2000/svg">
<path fill-rule="evenodd" clip-rule="evenodd" d="M6.24388 12.7813L2.80717 15.1766L2.67388 15.3099L5.19416 11.7172C4.87676 11.2049 4.69353 10.6008 4.69353 9.95387V5.26027C4.69353 3.40869 6.19453 1.9077 8.0461 1.9077H12.7397C13.4162 1.9077 14.0459 2.10805 14.5726 2.45266L17.7357 0.248083L17.869 0.114792L15.5463 3.42584C15.8915 3.95292 16.0923 4.58315 16.0923 5.26027V9.95387C16.0923 11.8054 14.5913 13.3064 12.7397 13.3064H8.0461C7.38273 13.3064 6.76435 13.1138 6.24388 12.7813ZM7.51588 11.8948C7.6848 11.9408 7.86258 11.9654 8.0461 11.9654H12.7397C13.8506 11.9654 14.7512 11.0648 14.7512 9.95387V5.26027C14.7512 5.05863 14.7216 4.86391 14.6664 4.68026L11.6044 9.04526L7.51588 11.8948ZM13.312 3.3313C13.1306 3.27757 12.9385 3.24873 12.7397 3.24873H8.0461C6.93516 3.24873 6.03456 4.14932 6.03456 5.26027V9.95387C6.03456 10.1201 6.05473 10.2817 6.09275 10.4362L8.93854 6.37945L13.312 3.3313ZM3.35257 7.94227C2.24163 7.94227 1.34103 8.84287 1.34103 9.95381V14.6474C1.34103 15.7584 2.24163 16.659 3.35257 16.659H8.04618C9.15712 16.659 10.0577 15.7584 10.0577 14.6474H11.3987C11.3987 16.499 9.89775 18 8.04618 18H3.35257C1.501 18 0 16.499 0 14.6474V9.95381C0 8.10224 1.501 6.60124 3.35257 6.60124V7.94227Z" fill="white"/>
</svg>
